<svg xmlns="http://www.w3.org/2000/svg" viewBox="0 0 291 50"><defs><style>.a{fill:#00dbdc;}.b{fill:#f8ff81;}</style></defs><path class="a" d="M50.4,25.3a25,25,0,1,1-25-25A25,25,0,0,1,50.4,25.3Z"/><path class="b" d="M42.7,29.4H34.8a7.7,7.7,0,0,1-5.7-3.3c-1.7-2.5-1.6-5.9.2-10.1l1.8.8c-1.5,3.5-1.6,6.3-.3,8.2a5.6,5.6,0,0,0,4,2.4h7.9Z"/><path class="b" d="M16.8,29.4H8.1v-2h6.7a13.2,13.2,0,0,1,4.9-8.6c4.8-4,10.6-3.6,14.6-3l-.3,2c-3.6-.6-8.8-1-13,2.5s-4.2,8-4.2,8Z"/><path class="a" d="M110.4,25.3a25,25,0,1,1-25-25A25,25,0,0,1,110.4,25.3Z"/><path class="b" d="M83.2,41.6l-.6-1.1c-2-3.4-3-11.9-3-18A17.2,17.2,0,0,1,84.8,9.8l.6-.6.7.6a17.2,17.2,0,0,1,5.2,12.7c0,6.1-1.1,14.6-3,18l-.6,1.1-2.3-1.9Zm2.2-4.5L87,38.4c1.5-3.6,2.3-10.6,2.3-15.9A15.3,15.3,0,0,0,85.4,12a15.9,15.9,0,0,0-3.8,10.5c0,5.3.8,12.3,2.2,15.9Z"/><path class="a" d="M170.5,25.3a25,25,0,1,1-25-25A25,25,0,0,1,170.5,25.3Z"/><path class="b" d="M159.8,35.8H134.1v-22h13.7V24l7.1,1.2a7.2,7.2,0,0,1,5.8,7,6.6,6.6,0,0,1-.7,3Zm-23.7-2h22.4a8.8,8.8,0,0,0,.2-1.6,5.1,5.1,0,0,0-4.1-5l-8.8-1.5V15.8h-9.7Z"/><rect class="b" x="140.9" y="18.9" width="5.9" height="2"/><rect class="b" x="135.1" y="32.3" width="24.4" height="2"/><path class="a" d="M230.6,25.3a25,25,0,1,1-25-25A25,25,0,0,1,230.6,25.3Z"/><polygon class="b" points="221.6 27.8 198.6 27.8 189.5 18.7 190.9 17.3 199.4 25.8 221.6 25.8 221.6 27.8"/><rect class="b" x="193.1" y="29.6" width="7.5" height="2" transform="translate(89.9 198.6) rotate(-66.3)"/><rect class="b" x="214.3" y="26.6" width="2" height="7.24" transform="translate(1.5 69.4) rotate(-18.4)"/><rect class="b" x="200.5" y="10.2" width="4.4" height="2" transform="translate(33 122.6) rotate(-36.4)"/><rect class="b" x="205.4" y="14.1" width="4.4" height="2" transform="translate(110.6 199.3) rotate(-66.4)"/><rect class="b" x="212.8" y="13.8" width="2" height="4.43" transform="translate(-0.4 24.1) rotate(-6.4)"/><path class="a" d="M290.6,25.3a25,25,0,1,1-25-25A25,25,0,0,1,290.6,25.3Z"/><path class="b" d="M275.4,37.9H255.9V11.8h19.5Zm-17.5-2h15.5V13.8H257.9Z"/><path class="b" d="M265.6,22a3.2,3.2,0,1,1,3.1-3.2A3.1,3.1,0,0,1,265.6,22Zm0-4.3a1.1,1.1,0,0,0-1.1,1.1,1.1,1.1,0,1,0,2.2,0A1.1,1.1,0,0,0,265.6,17.7Z"/><path class="b" d="M265.6,35a6.3,6.3,0,0,1-6.2-6.3,6.3,6.3,0,0,1,12.5,0A6.3,6.3,0,0,1,265.6,35Zm0-10.5a4.2,4.2,0,0,0-4.2,4.2,4.3,4.3,0,1,0,8.5,0A4.2,4.2,0,0,0,265.6,24.5Z"/></svg>