<svg xmlns="http://www.w3.org/2000/svg" viewBox="0 0 72 32"><defs><style>.a{fill:#00dbdc;}.b{fill:#f8ff81;}</style></defs><path class="a" d="M55.5,30.3a27.2,27.2,0,0,0-38.3,0L1.6,14.7a49.1,49.1,0,0,1,69.5,0Z"/><path class="b" d="M17.3,13.1l2.9-1.2a2.1,2.1,0,0,1,1.7-.2,2,2,0,0,1,.8.8h0a1.6,1.6,0,0,1-.4,1.6A1.5,1.5,0,0,1,24,15h0c.4,1-.1,1.9-1.4,2.5l-2.9,1.2Zm3.4,1.2c.5-.2.7-.5.6-.8h0c-.2-.3-.5-.4-1-.2l-1,.4.5,1Zm1.2,2c.4-.2.6-.5.5-.8h0c-.1-.4-.5-.4-1-.2l-1.2.5.5,1Z"/><path class="b" d="M48,15.8l1.3-.7a2.7,2.7,0,0,0,1.6,1.4c.4.2.7.1.8-.1h0c.1-.2-.1-.4-.8-.9S49,14,49.4,12.8h.1a2,2,0,0,1,2.8-1,3.7,3.7,0,0,1,2.1,1.7l-1.2.8a3.1,3.1,0,0,0-1.4-1.2c-.4-.1-.6,0-.7.2h0c-.1.2.1.4.8.9s1.8,1.5,1.4,2.6h0c-.4,1.2-1.6,1.5-3,1A4.5,4.5,0,0,1,48,15.8Z"/><path class="b" d="M35.5,8.7H33.7V7.3H39V8.7H37.2v8.2H35.5Z"/><rect class="b" x="42.5" y="11.6" width="2.2" height="2.23" transform="translate(-0.6 22.9) rotate(-29.3)"/><rect class="b" x="27.8" y="11.6" width="2.2" height="2.23" transform="translate(3.7 31.7) rotate(-60.7)"/></svg>