<svg id="Réteg_1" data-name="Réteg 1" xmlns="http://www.w3.org/2000/svg" viewBox="0 0 1280 820">
  <defs>
    <style>
      .cls-1 {
        fill: #f8ffb8;
      }
    </style>
  </defs>
  <path class="wave" d="M1280,820v-7.9c-27.9-4.5-43.7-22.8-79.2-22.8-40.4,0-40.4,23.8-80.9,23.8s-40.4-23.8-80.8-23.8-40.5,23.8-80.9,23.8-40.4-23.8-80.9-23.8-40.4,23.8-80.8,23.8-40.5-23.8-80.9-23.8-40.4,23.8-80.9,23.8-40.4-23.8-80.8-23.8-40.5,23.8-80.9,23.8-40.4-23.8-80.9-23.8-40.4,23.8-80.8,23.8-40.5-23.8-80.9-23.8-40.4,23.8-80.9,23.8-40.4-23.8-80.8-23.8c-30.8,0-49.1,13.8-68.7,20.4V820Z"/>
  <path class="wave" d="M0,0V11.2c27.9,4.5,42.4,22.7,77.9,22.7,40.4,0,40.4-23.7,80.8-23.7s40.5,23.7,80.9,23.7S280,10.2,320.5,10.2s40.4,23.7,80.8,23.7,40.5-23.7,80.9-23.7,40.4,23.7,80.9,23.7,40.4-23.7,80.8-23.7,40.5,23.7,80.9,23.7,40.4-23.7,80.9-23.7,40.4,23.7,80.8,23.7S927,10.2,967.4,10.2s40.4,23.7,80.9,23.7,40.4-23.7,80.8-23.7,40.5,23.7,80.9,23.7c30.8,0,50.4-13.7,70-20.3V0Z"/>
</svg>
