<svg id="Réteg_1" data-name="Réteg 1" xmlns="http://www.w3.org/2000/svg" xmlns:xlink="http://www.w3.org/1999/xlink" viewBox="0 0 1280 820">
  <defs>
    <style>
      .cls-1 {
        fill: #66e4ee;
      }

      .cls-2 {
        fill: #f8ffb8;
      }

      .cls-3 {
        fill: #fff;
      }

      .cls-4 {
        fill: #00b9bc;
      }

      .cls-5 {
        fill: #976b00;
      }

      .cls-6 {
        fill: #929292;
      }

      .cls-7 {
        fill: #d42000;
      }

      .cls-8 {
        fill: #f37322;
      }

      .cls-9 {
        fill: #f8ab7a;
      }

      .cls-10 {
        fill: #00607c;
      }

      .cls-11 {
        fill: #00b033;
      }

      .cls-12 {
        fill: #dff3fd;
      }

			#icon1,
			#icon2,
			#icon3,
			#icon4{
				transform: scale(1);
				transform-origin: 50% 50%;
				transition: 400ms transform;
				transform-box: fill-box;
			}
			#icon1:hover,
			#icon2:hover,
			#icon3:hover,
			#icon4:hover {
				transform: scale(1.1);
			}

			svg{
				background-color: #66E4EE;
			}

			.wave{
				fill: #f8ffb8;
			}
    </style>
  </defs>
	<g>
	    <image width="1280" height="820" xlink:href="/SVG/map_bg1.png"/>

	    <image width="1280" height="820" xlink:href="/SVG/map_bg.svg"/>
	</g>
  <g id="icon1">
    <g>
      <circle class="cls-1" cx="547.8" cy="337.7" r="70.4"/>
      <path class="cls-2" d="M547.8,278.3a59.5,59.5,0,1,1-59.5,59.4,59.5,59.5,0,0,1,59.5-59.4m0-11a70.5,70.5,0,1,0,70.4,70.4,70.5,70.5,0,0,0-70.4-70.4Z"/>
    </g>
    <g>
      <path class="cls-3" d="M551.1,318.6c-9.9,0-24.3-1.6-30.5-4.2l-3.2-1.3,4.3-3.4-4.3-3.4,3.2-1.3c6.2-2.6,20.6-4.2,30.5-4.2,14,0,22.8,7.1,23.1,7.4l1.9,1.5-1.9,1.5C573.9,311.5,565.1,318.6,551.1,318.6Zm-25.6-6.8c6.6,1.7,17.8,2.8,25.6,2.8a36.7,36.7,0,0,0,18.3-4.9,36.7,36.7,0,0,0-18.3-4.9c-7.8,0-19,1.1-25.6,2.8l2.6,2.1Z"/>
      <g>
        <g>
          <path class="cls-4" d="M511.3,358.7c-6.4,0-11.5-4.7-11.5-10.5h5c0,3,2.9,5.5,6.5,5.5Z"/>
          <path class="cls-4" d="M565.1,358.7v-5c3.5,0,6.4-2.5,6.4-5.5h5.1C576.6,354,571.4,358.7,565.1,358.7Z"/>
          <path class="cls-4" d="M583,358.7c-6.3,0-11.5-4.7-11.5-10.5h5.1c0,3,2.9,5.5,6.4,5.5s6.5-2.5,6.5-5.5h5C594.5,354,589.3,358.7,583,358.7Z"/>
          <path class="cls-4" d="M529.2,370c-6.3,0-11.5-4.7-11.5-10.5h5c0,3,2.9,5.5,6.5,5.5s6.5-2.5,6.5-5.5h5C540.7,365.3,535.5,370,529.2,370Z"/>
          <path class="cls-4" d="M547.1,370c-6.3,0-11.4-4.7-11.4-10.5h5c0,3,2.9,5.5,6.4,5.5s6.5-2.5,6.5-5.5h5C558.6,365.3,553.5,370,547.1,370Z"/>
          <path class="cls-4" d="M547.1,383.8c-6.3,0-11.4-4.7-11.4-10.5h5c0,3,2.9,5.5,6.4,5.5s6.5-2.5,6.5-5.5h5C558.6,379.1,553.5,383.8,547.1,383.8Z"/>
          <path class="cls-4" d="M565.1,370c-6.4,0-11.5-4.7-11.5-10.5h5c0,3,2.9,5.5,6.5,5.5s6.4-2.5,6.4-5.5h5.1C576.6,365.3,571.4,370,565.1,370Z"/>
        </g>
        <path class="cls-4" d="M511.4,358.7h-.3l.3-5c.3,0,8.8.2,17.5-13.6,5.5-8.8,12.8-13.8,20.6-14.1a17.9,17.9,0,0,1,15.2,7.5l3.4,4.8-5.8-.8a6.4,6.4,0,0,0-4.4,1.2c-1.2,1-1.7,2.6-1.7,4.9,0,9.7,8.8,10.1,8.9,10.1v5c-4.6,0-14-3.7-14-15.1,0-3.8,1.2-6.8,3.5-8.7a8.7,8.7,0,0,1,2.7-1.7,12.5,12.5,0,0,0-7.6-2.1c-6.1.2-12,4.3-16.6,11.7C523.6,358,513.4,358.7,511.4,358.7Z"/>
      </g>
    </g>
  </g>
  <g id="icon2">
    <circle class="cls-2" cx="742.3" cy="476.9" r="70.4"/>
    <g>
      <g>
        <g>
          <path class="cls-2" d="M748.1,436.8v6.4s12.4-16,25.1-3C773.2,440.2,761.9,452.8,748.1,436.8Z"/>
          <path class="cls-5" d="M746.1,449V431.5l3.5,4a9.8,9.8,0,0,0,1.7,1.8,19.2,19.2,0,0,1,10.4-4.2c4.6-.3,9,1.6,12.9,5.7l1.3,1.3-1.3,1.4a17.3,17.3,0,0,1-12.1,5.4h-.1a18.2,18.2,0,0,1-11.2-4.2c-1,.9-1.5,1.7-1.6,1.7Zm8.3-9a13.5,13.5,0,0,0,7.9,2.9,12.8,12.8,0,0,0,7.9-2.8,11.4,11.4,0,0,0-8.3-3A14.1,14.1,0,0,0,754.4,440Z"/>
        </g>
        <g>
          <path class="cls-2" d="M719.8,443.9v6.3s12.5-16,25.1-3C744.9,447.2,733.7,459.8,719.8,443.9Z"/>
          <path class="cls-5" d="M717.8,456V438.5l3.5,4.1,1.7,1.8a19.6,19.6,0,0,1,10.5-4.3c4.6-.2,8.9,1.7,12.8,5.7l1.3,1.3-1.2,1.4c-.2.2-5,5.5-12.3,5.4a17.9,17.9,0,0,1-11.1-4.2l-1.6,1.7Zm8.3-9a14,14,0,0,0,8,2.9,12.8,12.8,0,0,0,7.8-2.7,11.7,11.7,0,0,0-8.2-3.1A16.3,16.3,0,0,0,726.1,447Z"/>
        </g>
        <g>
          <path class="cls-2" d="M719.8,429.9v6.3s12.5-16,25.1-3C744.9,433.2,733.7,445.9,719.8,429.9Z"/>
          <path class="cls-5" d="M717.8,442V424.6l3.5,4,1.7,1.8a19.5,19.5,0,0,1,10.5-4.2c4.6-.3,8.9,1.6,12.8,5.6l1.3,1.4-1.2,1.4a17.6,17.6,0,0,1-12.2,5.4h-.1c-3.8,0-7.5-1.5-11.1-4.3a10.7,10.7,0,0,0-1.6,1.8Zm8.3-8.9a14,14,0,0,0,8,2.9,13.1,13.1,0,0,0,7.8-2.8,11.2,11.2,0,0,0-8.2-3A14.5,14.5,0,0,0,726.1,433.1Z"/>
        </g>
      </g>
      <g>
        <path class="cls-2" d="M739.2,433.1h-.3c0-.1,0-.2.1-.2A.2.2,0,0,1,739.2,433.1Z"/>
        <path class="cls-5" d="M739,434.2a1.1,1.1,0,0,1-1.1-1.1,1.1,1.1,0,0,1,1.1-1.2,1.2,1.2,0,0,1,1.2,1.2A1.1,1.1,0,0,1,739,434.2Zm0-2a.9.9,0,0,0-.8.9.9.9,0,0,0,.8.8.9.9,0,0,0,.9-.8A.9.9,0,0,0,739,432.2Z"/>
      </g>
      <g>
        <path class="cls-2" d="M739.2,447a.2.2,0,0,1-.2.2c-.1,0-.1-.1-.1-.2s0-.1.1-.1S739.2,446.9,739.2,447Z"/>
        <path class="cls-5" d="M739,448.2a1.1,1.1,0,0,1-1.1-1.2,1.1,1.1,0,0,1,1.1-1.1,1.1,1.1,0,0,1,1.2,1.1A1.2,1.2,0,0,1,739,448.2Zm0-2a.9.9,0,0,0-.8.8.9.9,0,0,0,.8.9.9.9,0,0,0,.9-.9A.9.9,0,0,0,739,446.2Z"/>
      </g>
      <g>
        <path class="cls-2" d="M767.4,440c0,.1-.1.1-.2.1s-.1,0-.1-.1,0-.2.1-.2A.2.2,0,0,1,767.4,440Z"/>
        <path class="cls-5" d="M767.2,441.1a1.1,1.1,0,0,1-1.1-1.1,1.1,1.1,0,0,1,1.1-1.2,1.2,1.2,0,0,1,1.2,1.2A1.1,1.1,0,0,1,767.2,441.1Zm0-2a.9.9,0,0,0-.8.9.8.8,0,0,0,.8.8.8.8,0,0,0,.9-.8A.9.9,0,0,0,767.2,439.1Z"/>
      </g>
      <g>
        <path class="cls-6" d="M738.4,521.5c-8.1,0-17.5-2.5-27.6-10.2l-8.5,8.8V496l9.5,9.5h74.8l.2,4-22.5,2.7A42.3,42.3,0,0,1,738.4,521.5Zm-23.4-12c23.7,16.6,42.4,3.2,46.3,0Zm-8.7-3.8v4.5l2.2-2.3Z"/>
        <path class="cls-6" d="M755.3,512.4a1.2,1.2,0,0,1-1.2-1.2,1.1,1.1,0,0,1,1.2-1.1,1.1,1.1,0,0,1,1.1,1.1A1.1,1.1,0,0,1,755.3,512.4Zm0-2a.9.9,0,0,0-.9.8.9.9,0,0,0,.9.9.9.9,0,0,0,.8-.9A.9.9,0,0,0,755.3,510.4Z"/>
      </g>
      <g>
        <path class="cls-7" d="M758.6,485.9l-9.7-9.7a13.3,13.3,0,0,1-3.9-9.4,13.3,13.3,0,0,1,26.5,0,13.4,13.4,0,0,1-3.8,9.3Zm-.3-27.3a7.8,7.8,0,0,0-5.8,2.4,8,8,0,0,0,0,11.6l6,6.1,5.6-6.1a8.2,8.2,0,0,0,0-11.6A8,8,0,0,0,758.3,458.6Z"/>
        <g>
          <path class="cls-7" d="M754.9,467.3a1.1,1.1,0,0,1-1.2-1.1,1.2,1.2,0,0,1,1.2-1.2,1.1,1.1,0,0,1,1.1,1.2A1.1,1.1,0,0,1,754.9,467.3Zm0-2a.9.9,0,0,0-.9.9.9.9,0,0,0,.9.8.9.9,0,0,0,.8-.8A.9.9,0,0,0,754.9,465.3Z"/>
          <path class="cls-7" d="M761.7,467.3a1.2,1.2,0,0,1-1.2-1.1,1.2,1.2,0,1,1,2.4,0A1.2,1.2,0,0,1,761.7,467.3Zm0-2a.8.8,0,0,0-.8.9.8.8,0,1,0,1.6,0A.8.8,0,0,0,761.7,465.3Z"/>
        </g>
        <path class="cls-7" d="M738.5,491.3c-2.2,0-8.8-.3-12-3.4a6.5,6.5,0,0,1-2-4.7,2.5,2.5,0,0,1,5,0,1.4,1.4,0,0,0,.5,1.1c1.6,1.5,6.3,2.1,9.1,2h9.5a15.1,15.1,0,0,1-4.9-1.7l-4.4-2.6c-4-2.5-6-3.7-14.2-3.7-2,0-4.7.3-6,2a5.9,5.9,0,0,0-.8,4.2,2.5,2.5,0,0,1-4.8,1.2,10.2,10.2,0,0,1,1.7-8.5c2-2.6,5.4-3.9,9.9-3.9,9.6,0,12.5,1.7,16.8,4.4a46.7,46.7,0,0,0,4.2,2.5,10.5,10.5,0,0,0,10.7-.1l1.7-1.3,1.6,1.5c.2.3,2.8,3,1.5,6.2s-6.3,4.9-15.4,4.9h-7.7Z"/>
        <path class="cls-7" d="M753.8,499.5h-.6a2.5,2.5,0,0,1,0-5h.6c8.3,0,11.3-1.7,12.4-2.8a2.9,2.9,0,0,0,.9-2.2,3.6,3.6,0,0,0-1.1-2.8c-2-1.9-6.2-2.2-7.7-2.2h0a2.5,2.5,0,0,1-2.5-2.4,2.4,2.4,0,0,1,2.4-2.6c.8,0,7.4-.1,11.3,3.6a8.8,8.8,0,0,1,2.6,6.4,7.6,7.6,0,0,1-2.4,5.7C766.8,498.1,761.6,499.5,753.8,499.5Z"/>
      </g>
    </g>
  </g>
  <g id="icon3">
    <circle class="cls-2" cx="1037" cy="411" r="70.4"/>
    <g>
      <g>
        <path class="cls-1" d="M991.7,416.4c-6.3,0-11.5-4.7-11.5-10.5h5c0,3,2.9,5.5,6.5,5.5s6.5-2.5,6.5-5.5h5C1003.2,411.7,998,416.4,991.7,416.4Z"/>
        <path class="cls-1" d="M1009.6,416.4c-6.3,0-11.4-4.7-11.4-10.5h5c0,3,2.9,5.5,6.4,5.5s6.5-2.5,6.5-5.5h5C1021.1,411.7,1016,416.4,1009.6,416.4Z"/>
        <path class="cls-1" d="M1027.6,416.4c-6.3,0-11.5-4.7-11.5-10.5h5c0,3,2.9,5.5,6.5,5.5s6.5-2.5,6.5-5.5h5C1039.1,411.7,1033.9,416.4,1027.6,416.4Z"/>
        <path class="cls-1" d="M1045.5,416.4c-6.3,0-11.4-4.7-11.4-10.5h5c0,3,2.9,5.5,6.4,5.5s6.5-2.5,6.5-5.5h5C1057,411.7,1051.8,416.4,1045.5,416.4Z"/>
        <path class="cls-1" d="M1063.5,416.4c-6.4,0-11.5-4.7-11.5-10.5h5c0,3,2.9,5.5,6.5,5.5s6.4-2.5,6.4-5.5h5C1074.9,411.7,1069.8,416.4,1063.5,416.4Z"/>
        <path class="cls-1" d="M1081.4,416.4c-6.3,0-11.5-4.7-11.5-10.5h5c0,3,2.9,5.5,6.5,5.5s6.5-2.5,6.5-5.5h5C1092.9,411.7,1087.7,416.4,1081.4,416.4Z"/>
      </g>
      <g>
        <g>
          <g>
            <path class="cls-2" d="M1032.4,406.2a7.2,7.2,0,0,0,2.6-6.3s1.9,2.7,4.7,5.9,3.6,7.7,3.6,7.7h.1v.5a13.2,13.2,0,0,1-26.4,0v-.2h0s-.2-5.4,5.1-10.8,6.6-8.3,6.6-8.3S1027.9,402.5,1032.4,406.2Z"/>
            <path class="cls-8" d="M1030.2,429.2A15.3,15.3,0,0,1,1015,414v-2.2h.2a19.4,19.4,0,0,1,5.4-10.2,89.5,89.5,0,0,0,6.5-8.1l4.4-6.1-.8,7.5s-.4,5,1.7,8.3a5.4,5.4,0,0,0,.6-3l-1.2-8.2,4.8,6.8c.1,0,1.9,2.6,4.6,5.6a14.9,14.9,0,0,1,3.9,7.1h.2v2.4A15.3,15.3,0,0,1,1030.2,429.2Zm-11.2-14a11.2,11.2,0,0,0,22.3.1v-1.9c0-.1.1-3.1-3-6.2h-.1c-.7-.8-1.4-1.7-2.1-2.4a9.3,9.3,0,0,1-2.4,3.1l-1.3,1-1.2-1a13,13,0,0,1-4.1-7.7l-3.5,4.2h-.1c-4.6,4.6-4.5,9.3-4.5,9.3Z"/>
          </g>
          <g>
            <path class="cls-2" d="M1035.7,387a8.4,8.4,0,0,0-2.2-6.1,3.7,3.7,0,0,1,3,2.7C1037,386,1035.7,387,1035.7,387Z"/>
            <path class="cls-8" d="M1033.4,391.6l.3-4.7a6.6,6.6,0,0,0-1.6-4.5l-4-4,5.6.5a5.8,5.8,0,0,1,3.3,9.7Z"/>
          </g>
          <g>
            <path class="cls-2" d="M1031.1,404.7s5.1,5.7,5.1,9.9"/>
            <path class="cls-8" d="M1038.2,414.6h-4c0-2.5-2.8-6.6-4.6-8.6l3-2.6C1033.1,404,1038.2,409.8,1038.2,414.6Z"/>
          </g>
        </g>
        <path class="cls-9" d="M1030.2,426.1a5.6,5.6,0,0,1-5.6-5.6c0-2.4,2.8-6.2,4.1-7.7l1.5-2,1.6,2c1.2,1.5,4,5.3,4,7.7A5.6,5.6,0,0,1,1030.2,426.1Zm0-8.7a9.9,9.9,0,0,0-1.6,3.1,1.6,1.6,0,1,0,3.2,0A9.9,9.9,0,0,0,1030.2,417.4Z"/>
        <rect class="cls-5" x="1008.4" y="430.6" width="43.4" height="5" transform="translate(-84.5 353.8) rotate(-18.7)"/>
        <rect class="cls-5" x="1027.6" y="411.3" width="5" height="43.44" transform="translate(289.1 1269.5) rotate(-71.3)"/>
      </g>
      <g>
        <path class="cls-2" d="M1068.9,381a8.3,8.3,0,1,1-8.2-8.3A8.2,8.2,0,0,1,1068.9,381Z"/>
        <path class="cls-8" d="M1060.7,391.2a10.3,10.3,0,1,1,10.2-10.2A10.3,10.3,0,0,1,1060.7,391.2Zm0-16.5a6.3,6.3,0,1,0,6.2,6.3A6.3,6.3,0,0,0,1060.7,374.7Z"/>
      </g>
    </g>
  </g>
  <g id="icon4">
    <g>
      <circle class="cls-10" cx="1093.3" cy="111.3" r="70.4"/>
      <path class="cls-2" d="M1093.3,51.8a59.5,59.5,0,1,1-59.4,59.5,59.5,59.5,0,0,1,59.4-59.5m0-11a70.5,70.5,0,1,0,70.4,70.5,70.5,70.5,0,0,0-70.4-70.5Z"/>
    </g>
    <g>
      <path class="cls-1" d="M1048.5,118.1c-5.8,0-10.5-4.3-10.5-9.6h3c0,3.6,3.3,6.6,7.5,6.6s7.4-3,7.4-6.6h3C1058.9,113.8,1054.2,118.1,1048.5,118.1Z"/>
      <path class="cls-1" d="M1066.4,118.1c-5.8,0-10.5-4.3-10.5-9.6h3c0,3.6,3.4,6.6,7.5,6.6s7.5-3,7.5-6.6h3C1076.9,113.8,1072.2,118.1,1066.4,118.1Z"/>
      <path class="cls-1" d="M1084.3,118.1c-5.7,0-10.4-4.3-10.4-9.6h3c0,3.6,3.3,6.6,7.4,6.6s7.5-3,7.5-6.6h3C1094.8,113.8,1090.1,118.1,1084.3,118.1Z"/>
      <path class="cls-1" d="M1102.3,118.1c-5.8,0-10.5-4.3-10.5-9.6h3c0,3.6,3.4,6.6,7.5,6.6s7.4-3,7.4-6.6h3C1112.7,113.8,1108,118.1,1102.3,118.1Z"/>
      <path class="cls-1" d="M1120.2,118.1c-5.8,0-10.5-4.3-10.5-9.6h3c0,3.6,3.4,6.6,7.5,6.6s7.5-3,7.5-6.6h3C1130.7,113.8,1126,118.1,1120.2,118.1Z"/>
      <path class="cls-1" d="M1138.1,118.1c-5.7,0-10.4-4.3-10.4-9.6h3c0,3.6,3.3,6.6,7.4,6.6s7.5-3,7.5-6.6h3C1148.6,113.8,1143.9,118.1,1138.1,118.1Z"/>
    </g>
    <rect class="cls-10" x="1061.9" y="111.3" width="7.1" height="8.83"/>
    <g>
      <rect class="cls-5" x="1059.9" y="97.9" width="4" height="22.49"/>
      <rect class="cls-5" x="1066.4" y="102.6" width="4" height="21.12"/>
      <g>
        <path class="cls-11" d="M1066.5,106.1a9.6,9.6,0,0,0-4.9-5.6c-3.6-1.6-7,.2-9.6,2l-2.2-3.3c1.8-1.3,7.3-5.1,13.4-2.3a13.4,13.4,0,0,1,7.2,8.2l-3.9,1,1.9-.5Z"/>
        <path class="cls-11" d="M1070.4,106.1l-3.9-1a13,13,0,0,1,7.2-8.2c6.1-2.8,11.6,1,13.4,2.3l-2.3,3.3c-2.5-1.8-5.9-3.6-9.5-2A8.9,8.9,0,0,0,1070.4,106.1Z"/>
      </g>
      <g>
        <path class="cls-11" d="M1063.9,95l-4-.2a11.3,11.3,0,0,0-3.2-7.6c-3-3.1-6.7-2.9-9.5-2.3l-.8-3.9c2-.4,8.3-1.7,13.2,3.4A15.5,15.5,0,0,1,1063.9,95Z"/>
        <path class="cls-11" d="M1059.9,94.8a15.7,15.7,0,0,1,4.4-10.5c4.9-5.1,11.1-3.9,13.2-3.5l-.8,3.9c-2.9-.5-6.5-.8-9.5,2.3a12.1,12.1,0,0,0-3.3,7.7Z"/>
        <path class="cls-11" d="M1060,98.4a9,9,0,0,0-4.9-5.6c-3.6-1.6-7,.2-9.6,2l-2.2-3.3c1.8-1.3,7.3-5.1,13.4-2.4a13.7,13.7,0,0,1,7.2,8.3Z"/>
        <path class="cls-11" d="M1063.9,98.4l-3.9-1a13.7,13.7,0,0,1,7.2-8.3c6.1-2.7,11.6,1.1,13.4,2.4l-2.3,3.3c-2.5-1.8-5.9-3.6-9.5-2A8.6,8.6,0,0,0,1063.9,98.4Z"/>
      </g>
    </g>
    <path class="cls-12" d="M1111.5,70.3a16.5,16.5,0,0,0-2.5,8.6,14.9,14.9,0,0,0,2.9,8.7,8.7,8.7,0,0,1-8.5-8.7,8.6,8.6,0,0,1,8.1-8.6m.5-3.1a11.7,11.7,0,0,0,0,23.4,11.6,11.6,0,0,0,5.9-1.6,11.6,11.6,0,0,1-5.9-10.1c0-4.3,2.2-9,5.9-10.1a10.5,10.5,0,0,0-5.9-1.6Z"/>
    <g>
      <path class="cls-10" d="M1108.6,141.5h-15.5V117.4a7.7,7.7,0,0,1,3.8-6.6l.7-12h6.5l.7,12a7.5,7.5,0,0,1,3.8,6.6Z"/>
      <path class="cls-2" d="M1100.9,111.8v1.4l1.8,1a3.8,3.8,0,0,1,1.8,3.2v20.1h-7.5V117.4a3.7,3.7,0,0,1,1.9-3.2l1.8-1v-1.4m3.2-13h-6.5l-.7,12a7.7,7.7,0,0,0-3.8,6.6v24.1h15.5V117.4a7.5,7.5,0,0,0-3.8-6.6l-.7-12Z"/>
    </g>
    <g>
      <path class="cls-10" d="M1127,147.4h-15.5V123.3a7.8,7.8,0,0,1,3.8-6.6l.7-12h6.5l.7,12a7.6,7.6,0,0,1,3.8,6.6Z"/>
      <path class="cls-2" d="M1119.3,117.7v1.4l1.8,1.1a3.5,3.5,0,0,1,1.8,3.1v20.1h-7.5V123.3a3.4,3.4,0,0,1,1.9-3.1l1.8-1.1v-1.4m3.2-13H1116l-.7,12a7.8,7.8,0,0,0-3.8,6.6v24.1H1127V123.3a7.6,7.6,0,0,0-3.8-6.6l-.7-12Z"/>
    </g>
    <g>
      <rect class="cls-5" x="1078.4" y="141.8" width="9.1" height="4"/>
      <path class="cls-12" d="M1089,148.9h-12.2l-1.2-16.3h14.7Zm-9.4-3h6.6l.8-10.3h-8.2Z"/>
    </g>
  </g>
	<path class="wave" d="M1280,820v-7.9c-27.9-4.5-43.7-22.8-79.2-22.8-40.4,0-40.4,23.8-80.9,23.8s-40.4-23.8-80.8-23.8-40.5,23.8-80.9,23.8-40.4-23.8-80.9-23.8-40.4,23.8-80.8,23.8-40.5-23.8-80.9-23.8-40.4,23.8-80.9,23.8-40.4-23.8-80.8-23.8-40.5,23.8-80.9,23.8-40.4-23.8-80.9-23.8-40.4,23.8-80.8,23.8-40.5-23.8-80.9-23.8-40.4,23.8-80.9,23.8-40.4-23.8-80.8-23.8c-30.8,0-49.1,13.8-68.7,20.4V820Z"/>
  <path class="wave" d="M0,0V11.2c27.9,4.5,42.4,22.7,77.9,22.7,40.4,0,40.4-23.7,80.8-23.7s40.5,23.7,80.9,23.7S280,10.2,320.5,10.2s40.4,23.7,80.8,23.7,40.5-23.7,80.9-23.7,40.4,23.7,80.9,23.7,40.4-23.7,80.8-23.7,40.5,23.7,80.9,23.7,40.4-23.7,80.9-23.7,40.4,23.7,80.8,23.7S927,10.2,967.4,10.2s40.4,23.7,80.9,23.7,40.4-23.7,80.8-23.7,40.5,23.7,80.9,23.7c30.8,0,50.4-13.7,70-20.3V0Z"/>

</svg>
