<svg id="Réteg_1" data-name="Réteg 1" xmlns="http://www.w3.org/2000/svg" xmlns:xlink="http://www.w3.org/1999/xlink" viewBox="0 0 1280 820">
  <defs>
    <style>
      .cls-1 {
        font-size: 49.36px;
        letter-spacing: -0.04em;
      }

      .cls-1, .cls-5, .cls-6 {
        fill: #f8ffb8;
      }

      .cls-1, .cls-6 {
        font-family: Montserrat-ExtraBold, Montserrat;
        font-weight: 800;
      }

      .cls-2 {
        fill: #976b00;
      }

      .cls-3 {
        fill: #00b033;
      }

      .cls-4 {
        fill: #54ffff;
      }

      .cls-6 {
        font-size: 14.56px;
        letter-spacing: 0.02em;
      }

      .cls-7 {
        fill: #d42000;
      }

      .cls-8 {
        fill: #f7f6f6;
      }

      .cls-9 {
        fill: #666;
      }

      .cls-10 {
        fill: #fff;
      }
    </style>
  </defs>
  <g>
    <image width="2668" height="1710" transform="translate(-0.3 -0.4) scale(0.48)" xlink:href="/SVG/map_bg1.png"/>
    <text class="cls-1" transform="translate(553.8 89.2) scale(0.96 1)">Siargao</text>
    <g>
      <g>
        <rect class="cls-2" x="913.1" y="176.3" width="5" height="38.33"/>
        <rect class="cls-2" x="924.1" y="184.4" width="5" height="36"/>
        <g>
          <path class="cls-3" d="M924.2,190a16.7,16.7,0,0,0-8.9-10.1c-6.6-3-13,.5-17.2,3.4l-2.8-4c3-2.1,12.1-8.4,22-4A21.8,21.8,0,0,1,929,188.8l-4.8,1.2,2.4-.6Z"/>
          <path class="cls-3" d="M929,190l-4.8-1.2a21.8,21.8,0,0,1,11.7-13.5c9.9-4.4,19,1.9,22,4l-2.8,4c-4.2-2.9-10.6-6.4-17.2-3.4A16.7,16.7,0,0,0,929,190Z"/>
        </g>
        <g>
          <path class="cls-3" d="M918,171.3l-4.9-.2h0a21.3,21.3,0,0,0-5.8-13.8c-5.5-5.6-12.4-5.1-17.1-4.1l-1-4.9c3.4-.6,13.7-2.7,21.7,5.6A25.6,25.6,0,0,1,918,171.3Z"/>
          <path class="cls-3" d="M913.1,171a25.4,25.4,0,0,1,7.1-17.3c8-8.3,18.3-6.3,21.7-5.6l-1,4.8c-4.7-.9-11.6-1.5-17.1,4.2a20.9,20.9,0,0,0-5.8,13.7Z"/>
          <path class="cls-3" d="M913.1,176.9a15.8,15.8,0,0,0-8.9-10.2c-6.6-3-12.9.5-17.1,3.4l-2.8-4c2.9-2.1,12-8.4,21.9-4a21.3,21.3,0,0,1,11.7,13.6Z"/>
          <path class="cls-3" d="M918,176.8l-4.9-1.1a22,22,0,0,1,11.8-13.6c9.9-4.4,19,1.9,21.9,4l-2.8,4c-4.2-2.9-10.5-6.4-17.1-3.4A16.7,16.7,0,0,0,918,176.8Z"/>
        </g>
      </g>
      <g>
        <rect class="cls-2" x="631" y="636.1" width="5" height="38.33"/>
        <rect class="cls-2" x="642.1" y="644.1" width="5" height="36"/>
        <g>
          <path class="cls-3" d="M642.1,649.8a16,16,0,0,0-8.9-10.1c-6.6-3-12.9.5-17.2,3.4l-2.8-4.1c3-2,12.1-8.3,22-3.9a21.8,21.8,0,0,1,11.7,13.5Z"/>
          <path class="cls-3" d="M646.9,649.8l-4.8-1.2a21.8,21.8,0,0,1,11.7-13.5c9.9-4.4,19,1.9,22,3.9l-2.8,4.1c-4.2-2.9-10.5-6.4-17.1-3.4A16.7,16.7,0,0,0,646.9,649.8Z"/>
        </g>
        <g>
          <path class="cls-3" d="M635.9,631.1l-4.9-.2h0a20.8,20.8,0,0,0-5.7-13.8c-5.5-5.7-12.5-5.1-17.2-4.1l-1-4.9c3.4-.7,13.7-2.7,21.7,5.6A25,25,0,0,1,635.9,631.1Z"/>
          <path class="cls-3" d="M631,630.8a25.2,25.2,0,0,1,7.2-17.3c7.9-8.3,18.2-6.3,21.6-5.6l-.9,4.8c-4.8-.9-11.7-1.5-17.2,4.2a20.1,20.1,0,0,0-5.7,13.7Z"/>
          <path class="cls-3" d="M631.1,636.7a16.5,16.5,0,0,0-8.9-10.2c-6.6-3-13,.5-17.2,3.4l-2.8-4c3-2.1,12.1-8.4,22-4a21.7,21.7,0,0,1,11.7,13.6Z"/>
          <path class="cls-3" d="M635.9,636.6l-4.8-1.1a21.7,21.7,0,0,1,11.7-13.6c9.9-4.4,19,1.9,22,4l-2.8,4c-4.2-2.9-10.6-6.4-17.2-3.4A16.4,16.4,0,0,0,635.9,636.6Z"/>
        </g>
      </g>
      <g>
        <rect class="cls-2" x="728.8" y="259.7" width="5" height="25.71"/>
        <g>
          <path class="cls-3" d="M733.7,265.4l-4.8-1.2a21,21,0,0,1,11.7-13.5c9.9-4.5,19,1.8,21.9,3.9l-2.8,4.1c-4.2-2.9-10.5-6.5-17.1-3.5A15.8,15.8,0,0,0,733.7,265.4Z"/>
          <path class="cls-3" d="M728.9,265.4a16.5,16.5,0,0,0-9-10.2c-6.6-3-12.9.6-17.1,3.5l-2.8-4.1c2.9-2.1,12-8.4,21.9-3.9a21,21,0,0,1,11.7,13.5l-4.8,1.2,2.4-.6Z"/>
        </g>
        <g>
          <rect class="cls-2" x="739.8" y="251.6" width="5" height="28.05"/>
          <g>
            <path class="cls-3" d="M739.8,246.6a25.5,25.5,0,0,1,7.2-17.4c8-8.2,18.3-6.2,21.6-5.5l-.9,4.8c-4.7-.9-11.7-1.5-17.2,4.2a20.5,20.5,0,0,0-5.7,13.7Z"/>
            <path class="cls-3" d="M744.8,246.3l-5-.2h0a20.8,20.8,0,0,0-5.7-13.8c-5.5-5.7-12.4-5.1-17.2-4.1l-.9-4.9c3.4-.7,13.6-2.7,21.6,5.6A25.4,25.4,0,0,1,744.8,246.3Z"/>
            <path class="cls-3" d="M744.7,252.2l-4.8-1.2a21.4,21.4,0,0,1,11.7-13.5c9.9-4.4,19,1.8,22,3.9l-2.8,4.1c-4.2-2.9-10.6-6.5-17.2-3.5A16.5,16.5,0,0,0,744.7,252.2Z"/>
            <path class="cls-3" d="M739.9,252.2A16.5,16.5,0,0,0,731,242c-6.6-3-13,.6-17.2,3.5l-2.8-4.1c3-2.1,12.1-8.3,22-3.9A21.4,21.4,0,0,1,744.7,251Z"/>
          </g>
        </g>
        <g>
          <rect class="cls-2" x="815.3" y="235.3" width="5" height="24.52"/>
          <g>
            <path class="cls-3" d="M815.3,230.8a27.4,27.4,0,0,1,4.6-15.1c3.7-5.2,8.8-6.9,15.2-5.2l-1.3,4.8c-3.1-.8-6.7-1.1-9.8,3.3a22.7,22.7,0,0,0-3.7,12.1Z"/>
            <path class="cls-3" d="M820.3,230.6h-5a22.7,22.7,0,0,0-3.7-12.1c-3.1-4.4-6.7-4.1-9.8-3.3l-1.3-4.8c6.4-1.7,11.5,0,15.2,5.2A27.4,27.4,0,0,1,820.3,230.6Z"/>
            <path class="cls-3" d="M820.2,235.7l-4.9-.9c.1-.4,1.6-8.3,7.8-12.1s10.1-1.7,15.7,3.6l-3.5,3.6c-3.9-3.7-6.8-4.6-9.6-2.9C821.4,229.6,820.3,235.6,820.2,235.7Z"/>
            <path class="cls-3" d="M815.3,235.7c0-.1-1.2-6.1-5.5-8.7-2.7-1.7-5.7-.8-9.6,2.9l-3.4-3.6c5.6-5.3,10.9-6.5,15.6-3.6,6.3,3.8,7.8,11.7,7.8,12.1Z"/>
          </g>
        </g>
        <g>
          <rect class="cls-2" x="867.9" y="248" width="5" height="18.35"/>
          <g>
            <path class="cls-3" d="M867.9,243.6a27,27,0,0,1,4.6-15.1c3.7-5.2,8.8-7,15.2-5.3l-1.3,4.9c-3.1-.9-6.7-1.1-9.8,3.3a22.4,22.4,0,0,0-3.7,12Z"/>
            <path class="cls-3" d="M872.9,243.3h-5a22.7,22.7,0,0,0-3.7-12.1c-3.1-4.3-6.7-4.1-9.8-3.3l-1.3-4.8c6.4-1.7,11.5.1,15.2,5.2A27.4,27.4,0,0,1,872.9,243.3Z"/>
            <path class="cls-3" d="M872.9,248.4l-4.9-.9c0-.3,1.5-8.3,7.8-12.1,4.7-2.8,10-1.7,15.6,3.6l-3.4,3.6c-3.9-3.6-6.9-4.5-9.6-2.9C874.1,242.3,872.9,248.3,872.9,248.4Z"/>
            <path class="cls-3" d="M868,248.4c0-.1-1.2-6.1-5.5-8.7-2.8-1.7-5.7-.8-9.6,2.9l-3.5-3.6c5.6-5.3,10.9-6.4,15.7-3.6s7.7,11.8,7.8,12.1Z"/>
          </g>
        </g>
      </g>
    </g>
    <g>
      <g>
        <rect class="cls-2" x="67" y="252.3" width="5" height="25.71"/>
        <g>
          <path class="cls-3" d="M71.9,258l-4.8-1.2a21,21,0,0,1,11.7-13.5c9.9-4.5,19,1.8,21.9,3.9l-2.8,4.1c-4.2-2.9-10.5-6.5-17.1-3.5A15.8,15.8,0,0,0,71.9,258Z"/>
          <path class="cls-3" d="M67.1,258a16.5,16.5,0,0,0-9-10.2c-6.6-3-12.9.6-17.1,3.5l-2.8-4.1c2.9-2.1,12-8.4,21.9-3.9a21.7,21.7,0,0,1,11.8,13.5L67,258l2.4-.6Z"/>
        </g>
        <g>
          <rect class="cls-2" x="78" y="244.2" width="5" height="28.05"/>
          <g>
            <path class="cls-3" d="M78,239.2a25.5,25.5,0,0,1,7.2-17.4c8-8.2,18.3-6.2,21.6-5.5l-.9,4.8c-4.7-.9-11.7-1.5-17.2,4.2A20.7,20.7,0,0,0,83,239Z"/>
            <path class="cls-3" d="M83,238.9l-5-.2h0A20.8,20.8,0,0,0,72.3,225c-5.5-5.7-12.4-5.1-17.2-4.1l-.9-4.9c3.4-.7,13.6-2.7,21.6,5.6A25.4,25.4,0,0,1,83,238.9Z"/>
            <path class="cls-3" d="M82.9,244.8l-4.8-1.2a21.4,21.4,0,0,1,11.7-13.5c9.9-4.4,19,1.8,22,3.9l-2.8,4.1c-4.2-2.9-10.6-6.4-17.2-3.5A16.8,16.8,0,0,0,82.9,244.8Z"/>
            <path class="cls-3" d="M78.1,244.8a16.8,16.8,0,0,0-8.9-10.2c-6.6-2.9-13,.6-17.2,3.5L49.2,234c3-2.1,12.1-8.3,22-3.9a21.4,21.4,0,0,1,11.7,13.5Z"/>
          </g>
        </g>
        <g>
          <rect class="cls-2" x="153.5" y="227.9" width="5" height="24.52"/>
          <g>
            <path class="cls-3" d="M153.5,223.4a27.4,27.4,0,0,1,4.6-15.1c3.7-5.2,8.8-6.9,15.2-5.2l-1.3,4.8c-3.1-.8-6.7-1.1-9.8,3.3a21.7,21.7,0,0,0-3.7,12.1Z"/>
            <path class="cls-3" d="M158.5,223.2h-5a22.7,22.7,0,0,0-3.7-12.1c-3.1-4.4-6.7-4.1-9.8-3.3l-1.3-4.8c6.4-1.7,11.5,0,15.2,5.2A27.4,27.4,0,0,1,158.5,223.2Z"/>
            <path class="cls-3" d="M158.4,228.3l-4.9-.9c.1-.4,1.6-8.3,7.8-12.1s10.1-1.7,15.7,3.6l-3.5,3.6c-3.9-3.7-6.8-4.6-9.6-2.9S158.5,228.2,158.4,228.3Z"/>
            <path class="cls-3" d="M153.5,228.3c0-.1-1.2-6.1-5.5-8.7-2.7-1.7-5.7-.8-9.6,2.9l-3.4-3.6c5.6-5.3,10.9-6.5,15.6-3.6,6.3,3.8,7.8,11.7,7.8,12.1Z"/>
          </g>
        </g>
        <g>
          <rect class="cls-2" x="206.1" y="240.6" width="5" height="18.35"/>
          <g>
            <path class="cls-3" d="M206.1,236.2a27,27,0,0,1,4.6-15.1c3.7-5.2,8.8-7,15.2-5.3l-1.3,4.9c-3.1-.9-6.7-1.1-9.8,3.3a22.4,22.4,0,0,0-3.7,12Z"/>
            <path class="cls-3" d="M211.1,235.9h-5a22.7,22.7,0,0,0-3.7-12.1c-3.1-4.3-6.7-4.1-9.8-3.3l-1.3-4.8c6.4-1.7,11.5.1,15.2,5.3A27,27,0,0,1,211.1,235.9Z"/>
            <path class="cls-3" d="M211.1,241l-4.9-.9c0-.3,1.5-8.3,7.8-12.1,4.7-2.8,10-1.7,15.6,3.6l-3.4,3.6c-4-3.7-6.9-4.5-9.6-2.9C212.3,234.9,211.1,240.9,211.1,241Z"/>
            <path class="cls-3" d="M206.2,241c0-.1-1.2-6.1-5.5-8.7-2.8-1.6-5.7-.7-9.6,2.9l-3.5-3.6c5.6-5.3,10.9-6.4,15.7-3.6s7.7,11.8,7.8,12.1Z"/>
          </g>
        </g>
      </g>
      <g>
        <g>
          <rect class="cls-2" x="230.6" y="243.4" width="5" height="28.05"/>
          <g>
            <path class="cls-3" d="M230.6,238.3a25.4,25.4,0,0,1,7.2-17.3c8-8.3,18.3-6.3,21.6-5.6l-.9,4.9c-4.7-1-11.7-1.6-17.2,4.1a20.8,20.8,0,0,0-5.7,13.7Z"/>
            <path class="cls-3" d="M235.6,238.1l-5-.2h0a20.5,20.5,0,0,0-5.7-13.7c-5.5-5.7-12.4-5.1-17.2-4.2l-.9-4.8c3.4-.7,13.6-2.7,21.6,5.5A25.5,25.5,0,0,1,235.6,238.1Z"/>
            <path class="cls-3" d="M235.5,243.9l-4.8-1.2a21.8,21.8,0,0,1,11.7-13.5c9.9-4.4,19,1.9,22,3.9l-2.8,4.1c-4.2-2.9-10.6-6.4-17.2-3.5A17,17,0,0,0,235.5,243.9Z"/>
            <path class="cls-3" d="M230.7,243.9a17,17,0,0,0-8.9-10.2c-6.6-2.9-13,.6-17.2,3.5l-2.8-4.1c3-2,12.1-8.3,22-3.9a21.8,21.8,0,0,1,11.7,13.5Z"/>
          </g>
        </g>
        <g>
          <rect class="cls-2" x="84.7" y="181" width="5" height="24.52"/>
          <g>
            <path class="cls-3" d="M84.7,176.6a26.2,26.2,0,0,1,4.6-15.1c3.7-5.2,8.8-7,15.2-5.3l-1.3,4.9c-3.1-.9-6.7-1.1-9.8,3.3a21.5,21.5,0,0,0-3.7,12Z"/>
            <path class="cls-3" d="M89.7,176.3h-5A22.7,22.7,0,0,0,81,164.1c-3.2-4.3-6.8-4.1-9.9-3.3L69.8,156c6.4-1.7,11.6.1,15.2,5.3A27.5,27.5,0,0,1,89.7,176.3Z"/>
            <path class="cls-3" d="M89.6,181.4l-4.9-.9c.1-.3,1.6-8.3,7.8-12s10-1.8,15.6,3.5l-3.4,3.6c-3.9-3.6-6.9-4.5-9.6-2.9C90.8,175.3,89.6,181.3,89.6,181.4Z"/>
            <path class="cls-3" d="M84.7,181.4c0-.1-1.2-6.1-5.5-8.7-2.7-1.6-5.7-.7-9.6,2.9L66.2,172c5.6-5.3,10.8-6.4,15.6-3.5s7.8,11.7,7.8,12Z"/>
          </g>
        </g>
        <g>
          <rect class="cls-2" x="37.1" y="123.6" width="5" height="13.95"/>
          <g>
            <path class="cls-3" d="M37.1,119.8a25.2,25.2,0,0,1,3.6-13.1c4.1-6.5,12.6-5.6,15.6-4.7l-1.5,4.8c-1.4-.5-7.4-1.3-9.9,2.6a19.7,19.7,0,0,0-2.8,10.3Z"/>
            <path class="cls-3" d="M42.1,119.6h-5a21.8,21.8,0,0,0-2.9-10.3c-2.7-4.3-8.3-2.8-8.9-2.6l-1.4-4.8c7.1-2.1,12.3,1.2,14.5,4.7A25.8,25.8,0,0,1,42.1,119.6Z"/>
            <path class="cls-3" d="M42,124l-4.9-.8c0-.3,1.2-7.2,6.2-10.6s8.4-1.7,13,3.1l-3.6,3.5c-3.5-3.7-5.3-3.4-6.6-2.5C42.9,118.9,42,123.9,42,124Z"/>
            <path class="cls-3" d="M37.1,124s-.9-5.1-4.1-7.3c-1.3-.8-3-1.2-6.6,2.5l-3.6-3.5c4.6-4.8,9-5.8,13-3.1S42,122.9,42,123.2Z"/>
          </g>
        </g>
        <g>
          <rect class="cls-2" x="114.5" y="261.3" width="5" height="18.35"/>
          <g>
            <path class="cls-3" d="M114.5,256.9a27.4,27.4,0,0,1,4.6-15.1c3.7-5.2,8.8-6.9,15.2-5.2l-1.3,4.8c-3.1-.8-6.7-1.1-9.8,3.3a22.7,22.7,0,0,0-3.7,12.1Z"/>
            <path class="cls-3" d="M119.5,256.7h-5a22.7,22.7,0,0,0-3.7-12.1c-3.1-4.4-6.7-4.1-9.9-3.3l-1.2-4.8c6.4-1.7,11.5,0,15.1,5.2A27,27,0,0,1,119.5,256.7Z"/>
            <path class="cls-3" d="M119.4,261.7l-4.9-.9c.1-.3,1.6-8.2,7.8-12s10-1.7,15.6,3.5l-3.4,3.7c-3.9-3.7-6.9-4.6-9.6-2.9C120.6,255.7,119.4,261.7,119.4,261.7Z"/>
            <path class="cls-3" d="M114.5,261.7s-1.2-6-5.5-8.6c-2.7-1.7-5.7-.8-9.6,2.9L96,252.3c5.6-5.2,10.9-6.4,15.6-3.5,6.3,3.8,7.8,11.7,7.8,12Z"/>
          </g>
        </g>
      </g>
    </g>
    <g>
      <rect class="cls-4" x="940.7" y="402.5" width="21.9" height="4.96"/>
      <rect class="cls-4" x="899.5" y="443.1" width="21.9" height="4.96"/>
      <rect class="cls-4" x="870.6" y="405.5" width="21.9" height="4.96"/>
      <rect class="cls-4" x="906.5" y="416.7" width="21.9" height="4.96"/>
      <rect class="cls-4" x="1027" y="524.1" width="21.9" height="4.96"/>
      <rect class="cls-4" x="998.4" y="505" width="21.9" height="4.96"/>
      <rect class="cls-4" x="997.3" y="541.8" width="21.9" height="4.96"/>
      <rect class="cls-4" x="983.1" y="523.9" width="21.9" height="4.96"/>
      <rect class="cls-4" x="1042.5" y="570.2" width="21.9" height="4.96"/>
      <rect class="cls-4" x="1045" y="549.1" width="21.9" height="4.96"/>
      <rect class="cls-4" x="1075.6" y="530" width="21.9" height="4.96"/>
      <rect class="cls-4" x="963.1" y="575.3" width="21.9" height="4.96"/>
      <rect class="cls-4" x="1005.9" y="624" width="21.9" height="4.96"/>
      <rect class="cls-4" x="964.1" y="205" width="21.9" height="4.96"/>
      <rect class="cls-4" x="993.7" y="197.7" width="21.9" height="4.96"/>
      <rect class="cls-4" x="996.9" y="222.4" width="21.9" height="4.96"/>
      <rect class="cls-4" x="955.1" y="218.7" width="21.9" height="4.96"/>
      <rect class="cls-4" x="976.7" y="151.6" width="21.9" height="4.96"/>
      <rect class="cls-4" x="959.7" y="112.2" width="21.9" height="4.96"/>
      <rect class="cls-4" x="774.5" y="336" width="21.9" height="4.96"/>
      <rect class="cls-4" x="754.4" y="354" width="21.9" height="4.96"/>
      <rect class="cls-4" x="712.1" y="346.5" width="21.9" height="4.96"/>
      <rect class="cls-4" x="728.3" y="377.2" width="21.9" height="4.96"/>
      <rect class="cls-4" x="809" y="34.6" width="21.9" height="4.96"/>
      <rect class="cls-4" x="820.7" y="57.1" width="21.9" height="4.96"/>
      <rect class="cls-4" x="857.4" y="42.7" width="21.9" height="4.96"/>
      <rect class="cls-4" x="829.3" y="76.9" width="21.9" height="4.96"/>
      <rect class="cls-4" x="1246.3" y="281.9" width="21.9" height="4.96"/>
      <rect class="cls-4" x="1221.7" y="288.3" width="21.9" height="4.96"/>
      <rect class="cls-4" x="1240.3" y="314.8" width="21.9" height="4.96"/>
      <rect class="cls-4" x="1219.4" y="336.5" width="21.9" height="4.96"/>
      <rect class="cls-4" x="701.2" y="562.7" width="21.9" height="4.96"/>
      <rect class="cls-4" x="683" y="584.1" width="21.9" height="4.96"/>
      <rect class="cls-4" x="714.7" y="590.6" width="21.9" height="4.96"/>
      <rect class="cls-4" x="692.5" y="621.1" width="21.9" height="4.96"/>
      <rect class="cls-4" x="535.4" y="305.2" width="21.9" height="4.96"/>
      <rect class="cls-4" x="505.8" y="330.6" width="21.9" height="4.96"/>
      <rect class="cls-4" x="492.8" y="299.5" width="21.9" height="4.96"/>
      <rect class="cls-4" x="495.7" y="377.4" width="21.9" height="4.96"/>
      <rect class="cls-4" x="329" y="158.3" width="21.9" height="4.96"/>
      <rect class="cls-4" x="386" y="134.9" width="21.9" height="4.96"/>
      <rect class="cls-4" x="349.6" y="132.4" width="21.9" height="4.96"/>
      <rect class="cls-4" x="350.5" y="84.7" width="21.9" height="4.96"/>
      <rect class="cls-4" x="252.7" y="632.5" width="21.9" height="4.96"/>
      <rect class="cls-4" x="219.6" y="664.2" width="21.9" height="4.96"/>
      <rect class="cls-4" x="260" y="673.3" width="21.9" height="4.96"/>
      <rect class="cls-4" x="202.5" y="630.1" width="21.9" height="4.96"/>
      <rect class="cls-4" x="179.2" y="81" width="21.9" height="4.96"/>
      <rect class="cls-4" x="201.2" y="87.4" width="21.9" height="4.96"/>
      <rect class="cls-4" x="198.9" y="113.5" width="21.9" height="4.96"/>
      <rect class="cls-4" x="173" y="103.2" width="21.9" height="4.96"/>
      <rect class="cls-4" x="373.7" y="107.8" width="21.9" height="4.96"/>
      <rect class="cls-4" x="331.8" y="100.7" width="21.9" height="4.96"/>
      <rect class="cls-4" x="303.4" y="137.8" width="21.9" height="4.96"/>
      <rect class="cls-4" x="451.4" y="228.4" width="21.9" height="4.96"/>
      <rect class="cls-4" x="34.6" y="507.6" width="21.9" height="4.96"/>
      <rect class="cls-4" x="14.5" y="519.4" width="21.9" height="4.96"/>
      <rect class="cls-4" x="10.6" y="501.8" width="5.5" height="4.96"/>
      <rect class="cls-4" x="471.6" y="66.3" width="21.9" height="4.96"/>
      <rect class="cls-4" x="507.9" y="88.2" width="21.9" height="4.96"/>
      <rect class="cls-4" x="1113.4" y="21.6" width="21.9" height="4.96"/>
      <rect class="cls-4" x="1098.1" y="38.2" width="21.9" height="4.96"/>
      <rect class="cls-4" x="816.8" y="660.4" width="21.9" height="4.96"/>
      <rect class="cls-4" x="860.4" y="665.7" width="21.9" height="4.96"/>
      <rect class="cls-4" x="833.4" y="687.4" width="21.9" height="4.96"/>
      <rect class="cls-4" x="341.6" y="640.3" width="21.9" height="4.96"/>
      <rect class="cls-4" x="357.9" y="668.1" width="21.9" height="4.96"/>
      <rect class="cls-4" x="330.7" y="656.1" width="21.9" height="4.96"/>
      <rect class="cls-4" x="418.4" y="670.9" width="21.9" height="4.96"/>
      <rect class="cls-4" x="396.3" y="628.5" width="21.9" height="4.96"/>
      <rect class="cls-4" x="432.8" y="622.1" width="21.9" height="4.96"/>
      <rect class="cls-4" x="369.5" y="703.1" width="21.9" height="4.96"/>
      <rect class="cls-4" x="365.3" y="734.6" width="21.9" height="4.96"/>
    </g>
    <path class="cls-5" d="M1173.5,741.8a57.5,57.5,0,1,1,57.5-57.4A57.5,57.5,0,0,1,1173.5,741.8Zm0-111.9a54.5,54.5,0,1,0,54.5,54.5A54.5,54.5,0,0,0,1173.5,629.9Z"/>
    <path class="cls-5" d="M1173.5,730a45.7,45.7,0,1,1,45.7-45.6A45.6,45.6,0,0,1,1173.5,730Zm0-88.3a42.7,42.7,0,1,0,42.7,42.7A42.7,42.7,0,0,0,1173.5,641.7Z"/>
    <rect class="cls-5" x="1172" y="663.3" width="3" height="65.2"/>
    <rect class="cls-5" x="1129.4" y="682.9" width="88.4" height="3"/>
    <text class="cls-6" transform="translate(1168 655.8)">N</text>
    <path class="cls-5" d="M1177.8,629.9h-8.5V614a4.3,4.3,0,0,1,8.5,0Zm-5.5-3h2.5V614a1.2,1.2,0,0,0-1.3-1.2,1.2,1.2,0,0,0-1.2,1.2Z"/>
    <path class="cls-5" d="M1173.5,758.9a4.2,4.2,0,0,1-4.2-4.2V738.8h8.5v15.9A4.2,4.2,0,0,1,1173.5,758.9Zm-1.2-17.1v12.9a1.2,1.2,0,0,0,1.2,1.2,1.2,1.2,0,0,0,1.3-1.2V741.8Z"/>
    <path class="cls-5" d="M1142.6,639.3l-7.9-13.7a4.2,4.2,0,1,1,7.3-4.3l8,13.8Zm-4.2-17.1-.7.2a1.3,1.3,0,0,0-.4,1.7l6.4,11.1,2.2-1.2-6.4-11.2A1.4,1.4,0,0,0,1138.4,622.2Z"/>
    <path class="cls-5" d="M1208.7,749.5h-1.1a4.3,4.3,0,0,1-2.6-2l-7.9-13.8,7.3-4.2,8,13.7a4.7,4.7,0,0,1,.4,3.3,3.9,3.9,0,0,1-2,2.5A3.9,3.9,0,0,1,1208.7,749.5Zm-7.5-14.8,6.4,11.2a1.6,1.6,0,0,0,.8.6,1,1,0,0,0,.9-.2,1.1,1.1,0,0,0,.6-.7,1.7,1.7,0,0,0-.1-1l-6.5-11.1Z"/>
    <path class="cls-5" d="M1124.3,660.8l-13.8-7.9a4.4,4.4,0,0,1-1.6-5.8,4.3,4.3,0,0,1,5.9-1.6h0l13.7,8ZM1112.6,648a1.4,1.4,0,0,0-1.1.6,1.3,1.3,0,0,0,.5,1.7l11.2,6.4,1.2-2.1-11.1-6.5Z"/>
    <path class="cls-5" d="M1234.4,723.8a4.2,4.2,0,0,1-2.1-.6l-13.7-7.9,4.2-7.4,13.8,7.9a4.2,4.2,0,0,1,1.5,5.8,4.3,4.3,0,0,1-2.6,2Zm-11.7-9.6,11.1,6.4a1.1,1.1,0,0,0,1,.1,1.1,1.1,0,0,0,.7-.6,1.2,1.2,0,0,0-.4-1.7l-11.2-6.4Z"/>
    <path class="cls-5" d="M1119.1,688.6h-15.9a4.3,4.3,0,0,1,0-8.5h15.9Zm-15.9-5.5a1.2,1.2,0,0,0-1.2,1.3,1.1,1.1,0,0,0,.3.8,1.2,1.2,0,0,0,.9.4h12.9v-2.5Z"/>
    <path class="cls-5" d="M1228,688.6v-8.5h15.9a4.3,4.3,0,1,1,0,8.5H1228Zm3-5.5v2.5h12.9a1.4,1.4,0,0,0,1.2-1.2,1.3,1.3,0,0,0-1.2-1.3Z"/>
    <path class="cls-5" d="M1112.6,723.8l-1.1-.2a4.3,4.3,0,0,1-2.6-2,4.4,4.4,0,0,1-.4-3.2,4.3,4.3,0,0,1,2-2.6l13.8-7.9,4.2,7.4-13.7,7.9A4.3,4.3,0,0,1,1112.6,723.8Zm10.6-11.8-11.2,6.4a1.6,1.6,0,0,0-.6.8,1.3,1.3,0,0,0,.1.9,1.6,1.6,0,0,0,.8.6,1.2,1.2,0,0,0,1-.1l11.1-6.4Z"/>
    <path class="cls-5" d="M1222.8,660.8l-4.2-7.3,13.7-8a4.3,4.3,0,0,1,5.8,1.6,4,4,0,0,1,.4,3.2,4.6,4.6,0,0,1-1.9,2.6Zm-.1-6.2,1.2,2.1,11.2-6.4a1.2,1.2,0,0,0,.4-1.7,1.3,1.3,0,0,0-1.7-.5Z"/>
    <path class="cls-5" d="M1138.4,749.5a4.3,4.3,0,0,1-2.2-.6,4.2,4.2,0,0,1-1.5-5.8l7.9-13.7,7.4,4.2-8,13.8a3.9,3.9,0,0,1-2.5,2Zm-1.1-4.9a1.2,1.2,0,0,0,.4,1.7,1.2,1.2,0,0,0,1,.2,1.1,1.1,0,0,0,.7-.6l6.5-11.2-2.2-1.2Z"/>
    <path class="cls-5" d="M1204.4,639.3l-7.3-4.2,7.9-13.8a4.2,4.2,0,0,1,2.6-1.9,4,4,0,0,1,3.2.4,4.4,4.4,0,0,1,1.6,5.8Zm-3.2-5.3,2.1,1.2,6.5-11.1a1.3,1.3,0,0,0-.5-1.7,1,1,0,0,0-.9-.1,1,1,0,0,0-.8.5Z"/>
    <polygon class="cls-5" points="1178 669.7 1173.5 663.9 1169.2 669.7 1166.8 667.9 1173.5 658.9 1180.4 667.9 1178 669.7"/>
    <g>
      <g>
        <rect class="cls-7" x="198.3" y="264" width="8" height="54.31" transform="translate(-146.6 228.4) rotate(-45)"/>
        <rect class="cls-7" x="175.2" y="287.2" width="54.3" height="8" transform="translate(-146.6 228.4) rotate(-45)"/>
      </g>
      <g>
        <g>
          <rect class="cls-2" x="167.1" y="290.9" width="4" height="40.82"/>
          <rect class="cls-2" x="119.4" y="300.1" width="4" height="31.56"/>
          <rect class="cls-8" x="115.2" y="292.9" width="59.5" height="4" transform="translate(-60.3 38.3) rotate(-12.5)"/>
        </g>
        <rect class="cls-5" x="105.7" y="355.9" width="82.5" height="4"/>
        <g>
          <g>
            <rect class="cls-9" x="127.6" y="329.5" width="13.3" height="2.49"/>
            <path class="cls-9" d="M141.4,332.5H127.1V329h14.3Zm-13.3-1h12.3V330H128.1Z"/>
          </g>
          <g>
            <path class="cls-9" d="M167.3,336.3a9.3,9.3,0,0,0-2.9.5l-7.3-15.7h-7.8v2.4h6.2l2.8,6.1-17.5,4.7h-6v1.9l-1.8,1.9a10.2,10.2,0,0,0-5.7-1.8,9.9,9.9,0,1,0,9.9,9.9,9.6,9.6,0,0,0-2.4-6.4l1.8-1.9,4.4,9.5h6.8l11.9-14.9,2.4,5.3a9.9,9.9,0,1,0,5.2-1.5Zm-40,17.3a7.4,7.4,0,1,1,0-14.8,6.8,6.8,0,0,1,4,1.2l-1.8,2a5.4,5.4,0,0,0-2.2-.5,4.7,4.7,0,0,0,0,9.4,4.8,4.8,0,0,0,4.8-4.7,4.4,4.4,0,0,0-.8-2.5l1.8-2a7.1,7.1,0,0,1,1.6,4.5A7.4,7.4,0,0,1,127.3,353.6Zm2.3-7.4a2.3,2.3,0,0,1-2.3,2.3,2.4,2.4,0,0,1-2.3-2.3,2.3,2.3,0,0,1,2.3-2.3A2.3,2.3,0,0,1,129.6,346.2Zm17-1.3h-4.1l-1.6-3.5h8.6Zm4.9-6H139.8l-1-2.2h2.3l15.6-4.1Zm15.8,14.7a7.4,7.4,0,0,1-7.4-7.4,7.3,7.3,0,0,1,3.3-6.1l1.1,2.5a4.8,4.8,0,0,0-1.7,3.6,4.7,4.7,0,0,0,4.7,4.7,4.7,4.7,0,1,0,0-9.4h-.7l-1.2-2.4a6.3,6.3,0,0,1,1.9-.3,7.4,7.4,0,0,1,0,14.8Zm-2.2-7.4a2.3,2.3,0,1,1,4.5,0,2.3,2.3,0,1,1-4.5,0Z"/>
            <path class="cls-9" d="M167.3,356.6A10.4,10.4,0,0,1,157,346.2a10.2,10.2,0,0,1,4.5-8.6l-1.9-4.1L148,347.9h-7.4l-4.2-9.1-.9,1a10.5,10.5,0,0,1,2.2,6.4,10.4,10.4,0,1,1-10.4-10.4,10.2,10.2,0,0,1,5.6,1.7l1.4-1.5v-2.2h6.5l16.8-4.5-2.4-5.3h-6.4v-3.4h8.6l7.2,15.6a8.4,8.4,0,0,1,2.7-.4,10.4,10.4,0,0,1,0,20.8Zm-7.5-25,2.9,6.4-.3.2a9.4,9.4,0,1,0,4.9-1.4,9,9,0,0,0-2.8.4l-.4.2-7.3-15.8h-7V323h6l3.2,7-18.2,4.8h-5.5v1.5l-2.2,2.5-.4-.3a9.4,9.4,0,0,0-5.4-1.7,9.4,9.4,0,1,0,9.4,9.4,9.7,9.7,0,0,0-2.2-6.1l-.3-.3,2.5-2.8,4.6,9.9h6.2Zm7.5,22.5a8,8,0,0,1-7.9-7.9,7.8,7.8,0,0,1,3.5-6.5l.5-.4,1.5,3.4-.3.3a4.4,4.4,0,0,0-1.5,3.2,4.3,4.3,0,1,0,4.2-4.2h-1l-.2-.4-1.4-3h.6l2-.3a7.9,7.9,0,0,1,0,15.8ZM163,340.9a6.8,6.8,0,0,0-2.6,5.3,6.9,6.9,0,1,0,6.9-6.9h-1.2l.8,1.6h.4a5.3,5.3,0,1,1-3.6,1.5Zm-35.7,13.2a7.9,7.9,0,1,1,0-15.8,7.5,7.5,0,0,1,4.3,1.3l.5.3-2.5,2.7-.4-.2a4.1,4.1,0,0,0-1.9-.4,4.2,4.2,0,1,0,4.3,4.2,4.8,4.8,0,0,0-.7-2.3l-.2-.3,2.5-2.7.3.5a7.6,7.6,0,0,1,1.7,4.8A7.9,7.9,0,0,1,127.3,354.1Zm0-14.8a7,7,0,1,0,5.8,3.2l-1.2,1.2a5.5,5.5,0,0,1,.7,2.5,5.2,5.2,0,0,1-5.3,5.2,5.2,5.2,0,0,1,0-10.4,4.5,4.5,0,0,1,2,.4l1.2-1.3A7.2,7.2,0,0,0,127.3,339.3Zm40,9.7a2.8,2.8,0,1,1,2.8-2.8A2.8,2.8,0,0,1,167.3,349Zm0-4.6a1.8,1.8,0,0,0,0,3.6,1.8,1.8,0,0,0,0-3.6Zm-40,4.6a2.8,2.8,0,1,1,0-5.6,2.8,2.8,0,0,1,0,5.6Zm0-4.6a1.8,1.8,0,1,0,1.8,1.8A1.8,1.8,0,0,0,127.3,344.4Zm19.6,1h-4.7l-2.1-4.5h10.5Zm-4-1h3.5l2.1-2.5h-6.8Zm8.9-5H139.4l-1.4-3.2h3.1l16.9-4.5Zm-11.7-1h11.2l4-4.9-14.2,3.7h-1.5Z"/>
          </g>
        </g>
      </g>
    </g>
    <g>
      <path class="cls-10" d="M373.9,635.8H339.5c-1,0-6.1-.5-11.3-9.9l-1.7-3h60.4l-2.1,3.2C382.8,629,377.8,635.8,373.9,635.8Zm-40.3-8.9c1.8,2.5,4.2,4.9,5.9,4.9h34.4c.9-.1,3.1-2.1,5.3-4.9Z"/>
      <path class="cls-10" d="M416.1,617.1H381.7c-1,0-6.1-.4-11.3-9.8l-1.7-3h60.5l-2.1,3.1C425.1,610.4,420.1,617.1,416.1,617.1Zm-40.3-8.8c1.9,2.5,4.2,4.8,5.9,4.8h34.4c.9,0,3.1-2.1,5.3-4.8Z"/>
      <path class="cls-10" d="M420.9,656.8H386.5c-.9,0-6.1-.5-11.3-9.9l-1.6-3H434l-2.1,3.1C429.9,650,424.9,656.8,420.9,656.8Zm-40.3-8.9c1.9,2.5,4.2,4.9,5.9,4.9h34.4c.9-.1,3.1-2.1,5.3-4.9Z"/>
    </g>
    <g>
      <path class="cls-7" d="M1125.4,529.3h-5.2l.4-8h4.8c2.2,0,4.5-.1,6.7-.3l.6,8C1130.3,529.2,1127.8,529.3,1125.4,529.3Zm-17.7-1.7a90.7,90.7,0,0,1-12.1-3.3l2.6-7.5a86.3,86.3,0,0,0,11.1,2.9Zm37.4-.4-1.7-7.9a85.7,85.7,0,0,0,11-3.1l2.7,7.5A97.3,97.3,0,0,1,1145.1,527.2Zm-61-7.8a77.8,77.8,0,0,1-10.7-6.8l4.8-6.4a62.6,62.6,0,0,0,9.6,6.1Zm84.5-.8-3.7-7.1a74.9,74.9,0,0,0,9.8-5.9l4.6,6.5A89.7,89.7,0,0,1,1168.6,518.6Zm20.4-14.3-5.4-5.9a104.5,104.5,0,0,0,8-8.3l6.1,5.1A93.5,93.5,0,0,1,1189,504.3Zm-125-.2a69.7,69.7,0,0,1-7.8-10.1l6.8-4.3a59.7,59.7,0,0,0,6.9,9Zm141.1-18.9-6.7-4.3a90.5,90.5,0,0,0,5.7-10.1l7.2,3.5A96.2,96.2,0,0,1,1205.1,485.2Zm10.9-22.4-7.5-2.6c1.2-3.6,2.3-7.3,3.2-11.1l7.8,1.8A91,91,0,0,1,1216,462.8Zm5.6-24.1-7.9-1a111.1,111.1,0,0,0,.8-11.6l8,.2C1222.4,430.5,1222.1,434.7,1221.6,438.7Zm-7.3-24.2c-.2-3.8-.6-7.7-1.1-11.6l7.9-1.1c.6,4.1,1,8.2,1.2,12.2Zm-3.2-23.1c-.8-3.5-1.6-6.9-2.6-10.4l-.3-1,7.7-2.2.3,1c1,3.6,1.9,7.3,2.7,10.9Zm-6.6-22.5a114.4,114.4,0,0,0-4.5-10.7l7.3-3.4c1.7,3.6,3.3,7.4,4.7,11.3Zm-9.9-21a108.4,108.4,0,0,0-6.2-9.8l6.5-4.6a112.3,112.3,0,0,1,6.6,10.3Zm-13.3-19.1c-2.5-2.9-5.1-5.8-7.9-8.6l5.7-5.6c2.9,2.9,5.7,6,8.3,9.1Zm-16.4-16.5c-2.9-2.5-6-5-9.2-7.4l4.8-6.4c3.4,2.5,6.6,5.1,9.6,7.7Zm-18.8-14.1c-3.1-2.1-6.5-4.2-10-6.3l4.1-6.9c3.5,2.1,7,4.3,10.3,6.5Zm-20.3-12-10.6-5.4,3.5-7.2,10.8,5.5Zm-21.4-10.5-10.9-5,3.3-7.3,11,5Zm-21.8-10-11-5.3,3.6-7.1c3.1,1.5,6.5,3.2,10.7,5.1Zm-21.8-11.2a83.4,83.4,0,0,1-10.3-7.1l5.1-6.2a94.1,94.1,0,0,0,9.4,6.5Zm-19.3-16.6-1.3-2a33.9,33.9,0,0,1-4-10.5l7.9-1.4a25.1,25.1,0,0,0,3,7.8l1,1.5Zm3.1-24.2-7.8-1.8a67.1,67.1,0,0,1,4.2-12l7.4,3.2A60.6,60.6,0,0,0,1044.6,213.7Zm8.8-21.4-7.3-3.4c1.4-2.9,3.1-6.7,4.6-10.7l7.5,2.8C1056.6,185.3,1054.8,189.3,1053.4,192.3Z"/>
      <path class="cls-7" d="M811.5,434.5l-6.7-4.4v-.2l6.7,4.4Zm7-9.4-6.1-5.1a93.5,93.5,0,0,1,8.7-9.1l5.4,5.9A104.5,104.5,0,0,0,818.5,425.1Zm16.9-15.5-4.6-6.5a88.5,88.5,0,0,1,10.6-6.5l3.8,7A106.8,106.8,0,0,0,835.4,409.6ZM959.1,399s-4.3-1.4-11.2-3.1l1.8-7.8c7.4,1.8,11.8,3.2,12,3.3Zm-103.4-.2-2.9-7.4a107,107,0,0,1,11.7-3.9l2.2,7.7A94.4,94.4,0,0,0,855.7,398.8Zm80.6-5.2c-3.8-.7-7.7-1.3-11.6-1.7l.9-8c4,.5,8.1,1.1,12.1,1.8Zm-58.3-.9-1.4-7.9c4-.7,8.1-1.2,12.3-1.6l.7,8A104.8,104.8,0,0,0,878,392.7Zm35-1.8c-4-.3-7.9-.3-11.8-.3v-8c4.1,0,8.2,0,12.3.3Z"/>
      <path class="cls-7" d="M695.3,414.7l-5.9-5.5c.1-.1,3.2-3.4,7.6-9l6.3,5C698.6,411.1,695.4,414.5,695.3,414.7Zm15.2-19.4-6.6-4.6c2.3-3.2,4.4-6.6,6.4-9.8l6.9,4.1C715.1,388.4,712.9,391.9,710.5,395.3Zm12.6-21.1-7.1-3.6c1.7-3.6,3.3-7.1,4.7-10.6l7.5,2.9C726.7,366.6,725,370.4,723.1,374.2Zm9-23.1-7.8-2.1a67.1,67.1,0,0,0,2.2-11.2l8,1A98.5,98.5,0,0,1,732.1,351.1Zm-5.2-24.5c-.1-.9-.1-1.8-.2-2.7-.4-2.9-.9-5.8-1.5-8.5l7.8-1.8a92.1,92.1,0,0,1,1.6,9.4l.3,3.1Zm-5.2-22a57.3,57.3,0,0,0-5.4-9.7l6.6-4.6a60.7,60.7,0,0,1,6.2,11.2ZM615.5,290.2l-5.5-5.7a72,72,0,0,1,10-7.9l4.4,6.7A62,62,0,0,0,615.5,290.2Zm93.5-3.6a49.7,49.7,0,0,0-9-6.6l4-6.9a56.7,56.7,0,0,1,10.4,7.6Zm-74.7-8.8-3.3-7.3a83.8,83.8,0,0,1,11.8-4.4l2.2,7.7A80.9,80.9,0,0,0,634.3,277.8Zm55.5-2.5a56.4,56.4,0,0,0-10.9-2.9l1.4-7.9a70.5,70.5,0,0,1,12.2,3.2Zm-33.7-3.6-.9-8,4.7-.4c2.6-.1,5.3-.2,7.9-.1l-.3,8c-2.4-.1-4.8,0-7.2.1Z"/>
      <path class="cls-7" d="M451.4,707.7l-6.5-.3.8-8a60.9,60.9,0,0,0,11.3.1l.7,7.9Q454.6,707.7,451.4,707.7Zm18.7-2.5-2-7.7a81.2,81.2,0,0,0,10.8-3.7l3.1,7.4A97.9,97.9,0,0,1,470.1,705.2Zm-37.7-.3a65.9,65.9,0,0,1-11.7-4.9l3.7-7.1a54.4,54.4,0,0,0,10.4,4.3Zm60.9-9.4-4.3-6.8a53.5,53.5,0,0,0,8.8-6.9l5.5,5.8A64.4,64.4,0,0,1,493.3,695.5ZM410,693.1a90.5,90.5,0,0,1-9.3-8.4l5.7-5.5a85.7,85.7,0,0,0,8.5,7.6Zm101.6-15.3-6.7-4.5a67.8,67.8,0,0,0,5.5-9.9l7.3,3.2A80.1,80.1,0,0,1,511.6,677.8Zm-119-2.6c-.1-.1-7.2-9.8-7.2-12.4h4L393,661a71,71,0,0,0,6,9.4Zm129.3-20.4-7.7-2.1c.9-3.6,1.7-7.4,2.3-11.3l7.9,1.2A114.4,114.4,0,0,1,521.9,654.8Zm3.8-24.5-8-.5c.1-2.7.2-5.5.2-8.3v-3.4h8v3.5C525.9,624.5,525.8,627.4,525.7,630.3Zm-8.4-23.9c-.3-3.8-.8-7.8-1.3-11.7l7.9-1.1c.6,4.1,1,8.2,1.3,12.1ZM514.1,583c-.6-3.8-1.4-7.7-2.3-11.6l7.8-1.8q1.4,6.1,2.4,12Zm-5-23.2c-1-3.8-2-7.6-3.2-11.4l7.7-2.3c1.2,3.9,2.2,7.9,3.2,11.7ZM502.5,537c-1.2-3.8-2.5-7.6-3.8-11.3l7.5-2.6q2.1,5.7,3.9,11.4Zm-7.7-22.9c-1.1-3.9-2.1-7.9-2.9-12l7.9-1.5c.8,3.8,1.7,7.7,2.7,11.3Zm-4.7-24.2c-.4-4-.7-8.1-.9-12.2l8-.3a111.1,111.1,0,0,0,.9,11.6Zm7-24.3-8-.2c.1-4,.3-8.1.7-12.2l7.9.7C497.4,457.8,497.2,461.8,497.1,465.6Zm1.9-23.5-7.9-1c.5-4,1.2-8.1,2-12.1l7.8,1.5C500.2,434.4,499.6,438.3,499,442.1Zm4.4-23.1-7.8-1.9a109.4,109.4,0,0,1,3.4-11.9l7.5,2.5C506.5,407.8,505.1,412,503.4,419Z"/>
      <g>
        <path class="cls-7" d="M369.9,596.9l-7.9-1.1a51.6,51.6,0,0,0,.4-5.6l8,.3A34.6,34.6,0,0,1,369.9,596.9Z"/>
        <path class="cls-7" d="M362.4,578.1c-.2-3.8-.5-7.9-1-12.1l8-.8c.4,4.3.8,8.5,1,12.6ZM359.7,554c-.6-4-1.4-8-2.2-12l7.8-1.7c.9,4.1,1.7,8.3,2.3,12.4Zm-5.1-23.9c-1-3.9-2.1-7.9-3.3-11.8L359,516c1.2,4,2.3,8.1,3.4,12Zm-7.1-23.5c-1.3-3.8-2.7-7.6-4.2-11.5l7.5-2.9c1.5,4,2.9,7.9,4.3,11.8Zm-8.8-22.8c-1.6-3.8-3.3-7.5-5-11.3l7.3-3.3c1.7,3.8,3.4,7.6,5,11.4Zm-10.3-22.3c-1.8-3.6-3.7-7.3-5.7-10.9l7.1-3.8q3,5.6,5.7,11.1Zm-11.6-21.7c-2-3.5-4.1-7.1-6.3-10.6l6.9-4.1c2.1,3.5,4.3,7.2,6.3,10.7Zm-12.8-21c-2.1-3.4-4.4-6.9-6.7-10.3l6.6-4.5c2.3,3.5,4.7,7,6.9,10.5Zm-13.7-20.4-7.2-10,6.4-4.8,7.3,10.1Zm-14.7-19.9c-2.4-3.2-5-6.4-7.6-9.6l6.2-5c2.7,3.2,5.3,6.5,7.8,9.8Zm-15.4-19.2-8-9.4,6-5.2c2.8,3.1,5.5,6.3,8.1,9.5ZM244,340.7l-8.3-9.1,5.9-5.5,8.4,9.3Z"/>
        <path class="cls-7" d="M227.2,322.6l-4.1-4.3,5.7-5.6L233,317Z"/>
      </g>
    </g>
  </g>
</svg>
