<svg id="Réteg_1" data-name="Réteg 1" xmlns="http://www.w3.org/2000/svg" viewBox="0 0 47 57"><defs><style>.cls-1{fill:#00b033;}.cls-2{fill:#00dbdc;}.cls-3{fill:#976b00;}</style></defs><path class="cls-1" d="M46.91,51.49H.09V48.4C.09,41.17,6,25.32,23.5,25.32S46.91,41.17,46.91,48.4ZM6.64,45.32H40.36c-1.3-5.76-6.11-13.83-16.86-13.83S7.94,39.56,6.64,45.32Z"/><rect class="cls-2" x="0.17" y="51.23" width="46.66" height="6"/><rect class="cls-3" x="20.41" y="17.05" width="6.19" height="19.83"/><polygon class="cls-1" points="23.68 20.97 12.1 12.08 15.86 7.18 23.61 13.14 31.06 7.22 34.9 12.05 23.68 20.97"/><polygon class="cls-1" points="23.68 13.55 12.1 4.66 15.86 -0.23 23.61 5.72 31.06 -0.2 34.9 4.63 23.68 13.55"/></svg>